<svg width="26" height="26" viewBox="0 0 26 26" fill="none" xmlns="http://www.w3.org/2000/svg">
<path d="M22.75 20.5834V21.6667H3.25V20.5834L5.41667 18.4167V11.9167C5.41667 8.55835 7.61583 5.60085 10.8333 4.64752V4.33335C10.8333 3.75872 11.0616 3.20762 11.4679 2.80129C11.8743 2.39496 12.4254 2.16669 13 2.16669C13.5746 2.16669 14.1257 2.39496 14.5321 2.80129C14.9384 3.20762 15.1667 3.75872 15.1667 4.33335V4.64752C18.3842 5.60085 20.5833 8.55835 20.5833 11.9167V18.4167L22.75 20.5834ZM15.1667 22.75C15.1667 23.3247 14.9384 23.8758 14.5321 24.2821C14.1257 24.6884 13.5746 24.9167 13 24.9167C12.4254 24.9167 11.8743 24.6884 11.4679 24.2821C11.0616 23.8758 10.8333 23.3247 10.8333 22.75" fill="white"/>
</svg>
