<svg width="21" height="22" viewBox="0 0 21 22" fill="none" xmlns="http://www.w3.org/2000/svg">
<path d="M4.5 6C3.90666 6 3.32664 5.82405 2.83329 5.49441C2.33994 5.16477 1.95542 4.69623 1.72836 4.14805C1.5013 3.59987 1.44189 2.99667 1.55764 2.41473C1.6734 1.83279 1.95912 1.29824 2.37868 0.878681C2.79824 0.459123 3.33279 0.173401 3.91473 0.0576455C4.49667 -0.0581102 5.09987 0.00129984 5.64805 0.228363C6.19623 0.455426 6.66476 0.839943 6.99441 1.33329C7.32405 1.82664 7.5 2.40666 7.5 3C7.5 3.79565 7.18393 4.55871 6.62132 5.12132C6.05871 5.68393 5.29565 6 4.5 6ZM4.5 1.5C4.20333 1.5 3.91332 1.58797 3.66664 1.7528C3.41997 1.91762 3.22771 2.15189 3.11418 2.42598C3.00065 2.70007 2.97094 3.00167 3.02882 3.29264C3.0867 3.58361 3.22956 3.85088 3.43934 4.06066C3.64912 4.27044 3.91639 4.4133 4.20736 4.47118C4.49834 4.52906 4.79994 4.49935 5.07403 4.38582C5.34811 4.27229 5.58238 4.08003 5.7472 3.83336C5.91203 3.58668 6 3.29667 6 3C6 2.60218 5.84196 2.22065 5.56066 1.93934C5.27936 1.65804 4.89782 1.5 4.5 1.5ZM16.5 6C15.9067 6 15.3266 5.82405 14.8333 5.49441C14.3399 5.16477 13.9554 4.69623 13.7284 4.14805C13.5013 3.59987 13.4419 2.99667 13.5576 2.41473C13.6734 1.83279 13.9591 1.29824 14.3787 0.878681C14.7982 0.459123 15.3328 0.173401 15.9147 0.0576455C16.4967 -0.0581102 17.0999 0.00129984 17.6481 0.228363C18.1962 0.455426 18.6648 0.839943 18.9944 1.33329C19.3241 1.82664 19.5 2.40666 19.5 3C19.5 3.79565 19.1839 4.55871 18.6213 5.12132C18.0587 5.68393 17.2956 6 16.5 6ZM16.5 1.5C16.2033 1.5 15.9133 1.58797 15.6666 1.7528C15.42 1.91762 15.2277 2.15189 15.1142 2.42598C15.0006 2.70007 14.9709 3.00167 15.0288 3.29264C15.0867 3.58361 15.2296 3.85088 15.4393 4.06066C15.6491 4.27044 15.9164 4.4133 16.2074 4.47118C16.4983 4.52906 16.7999 4.49935 17.074 4.38582C17.3481 4.27229 17.5824 4.08003 17.7472 3.83336C17.912 3.58668 18 3.29667 18 3C18 2.60218 17.842 2.22065 17.5607 1.93934C17.2794 1.65804 16.8978 1.5 16.5 1.5ZM18 21.75H15C14.6022 21.75 14.2206 21.592 13.9393 21.3107C13.658 21.0294 13.5 20.6478 13.5 20.25V15H15V20.25H18V13.5H19.5V9C19.5 8.80109 19.421 8.61032 19.2803 8.46967C19.1397 8.32902 18.9489 8.25 18.75 8.25H13.935L10.5 14.25L7.065 8.25H2.25C2.05109 8.25 1.86032 8.32902 1.71967 8.46967C1.57902 8.61032 1.5 8.80109 1.5 9V13.5H3V20.25H6V15H7.5V20.25C7.5 20.6478 7.34196 21.0294 7.06066 21.3107C6.77936 21.592 6.39782 21.75 6 21.75H3C2.60218 21.75 2.22064 21.592 1.93934 21.3107C1.65804 21.0294 1.5 20.6478 1.5 20.25V15C1.10218 15 0.720644 14.842 0.43934 14.5607C0.158035 14.2794 0 13.8978 0 13.5V9C0 8.40326 0.237053 7.83097 0.65901 7.40901C1.08097 6.98705 1.65326 6.75 2.25 6.75H7.935L10.5 11.25L13.065 6.75H18.75C19.3467 6.75 19.919 6.98705 20.341 7.40901C20.7629 7.83097 21 8.40326 21 9V13.5C21 13.8978 20.842 14.2794 20.5607 14.5607C20.2794 14.842 19.8978 15 19.5 15V20.25C19.5 20.6478 19.342 21.0294 19.0607 21.3107C18.7794 21.592 18.3978 21.75 18 21.75Z" fill="white"/>
</svg>
