<svg width="235" height="235" viewBox="0 0 235 235" fill="none" xmlns="http://www.w3.org/2000/svg">
<path d="M161.563 102.813C161.563 127.194 141.881 146.875 117.5 146.875C93.1188 146.875 73.4375 127.194 73.4375 102.813C73.4375 78.4313 93.1188 58.75 117.5 58.75C141.881 58.75 161.563 78.4313 161.563 102.813Z" fill="#082F49"/>
<path fill-rule="evenodd" clip-rule="evenodd" d="M235 117.5C235 182.419 182.419 235 117.5 235C52.5812 235 0 182.419 0 117.5C0 52.5812 52.5812 0 117.5 0C182.419 0 235 52.5812 235 117.5ZM58.75 201.953C61.1 198.046 83.8656 161.562 117.353 161.562C150.694 161.562 173.606 198.134 175.956 201.953C189.614 192.509 200.773 179.888 208.474 165.177C216.175 150.466 220.187 134.105 220.166 117.5C220.166 60.6594 174.194 14.6875 117.353 14.6875C60.5125 14.6875 14.5406 60.6594 14.5406 117.5C14.5406 152.456 32.0187 183.447 58.75 201.953Z" fill="#082F49"/>
</svg>
