<svg width="24" height="24" viewBox="0 0 24 24" fill="none" xmlns="http://www.w3.org/2000/svg">
<path d="M9 4.5H6V1.5H4.5V4.5H1.5V6H4.5V9H6V6H9V4.5Z" fill="black"/>
<path d="M22.4393 12.4545L20.1893 7.2045C20.1314 7.06962 20.0353 6.95466 19.9128 6.87387C19.7903 6.79309 19.6468 6.75002 19.5 6.75H17.25V5.25C17.25 5.05109 17.171 4.86032 17.0303 4.71967C16.8897 4.57902 16.6989 4.5 16.5 4.5H11.25V6H15.75V15.417C15.4085 15.6157 15.1095 15.8799 14.8704 16.1945C14.6313 16.509 14.4566 16.8678 14.3565 17.25H9.6435C9.48035 16.6063 9.10723 16.0354 8.58317 15.6276C8.05911 15.2198 7.41403 14.9984 6.75 14.9984C6.08597 14.9984 5.44089 15.2198 4.91683 15.6276C4.39277 16.0354 4.01965 16.6063 3.8565 17.25H3V10.5H1.5V18C1.5 18.1989 1.57902 18.3897 1.71967 18.5303C1.86032 18.671 2.05109 18.75 2.25 18.75H3.8565C4.01965 19.3937 4.39277 19.9646 4.91683 20.3724C5.44089 20.7802 6.08597 21.0016 6.75 21.0016C7.41403 21.0016 8.05911 20.7802 8.58317 20.3724C9.10723 19.9646 9.48035 19.3937 9.6435 18.75H14.3565C14.5197 19.3937 14.8928 19.9646 15.4168 20.3724C15.9409 20.7802 16.586 21.0016 17.25 21.0016C17.914 21.0016 18.5591 20.7802 19.0832 20.3724C19.6072 19.9646 19.9803 19.3937 20.1435 18.75H21.75C21.9489 18.75 22.1397 18.671 22.2803 18.5303C22.421 18.3897 22.5 18.1989 22.5 18V12.75C22.5 12.6484 22.4793 12.5479 22.4393 12.4545ZM6.75 19.5C6.45333 19.5 6.16332 19.412 5.91665 19.2472C5.66997 19.0824 5.47771 18.8481 5.36418 18.574C5.25065 18.2999 5.22094 17.9983 5.27882 17.7074C5.3367 17.4164 5.47956 17.1491 5.68934 16.9393C5.89912 16.7296 6.16639 16.5867 6.45736 16.5288C6.74834 16.4709 7.04994 16.5006 7.32403 16.6142C7.59811 16.7277 7.83238 16.92 7.9972 17.1666C8.16203 17.4133 8.25 17.7033 8.25 18C8.2494 18.3976 8.09118 18.7788 7.81 19.06C7.52883 19.3412 7.14764 19.4994 6.75 19.5ZM17.25 8.25H19.005L20.613 12H17.25V8.25ZM17.25 19.5C16.9533 19.5 16.6633 19.412 16.4166 19.2472C16.17 19.0824 15.9777 18.8481 15.8642 18.574C15.7506 18.2999 15.7209 17.9983 15.7788 17.7074C15.8367 17.4164 15.9796 17.1491 16.1893 16.9393C16.3991 16.7296 16.6664 16.5867 16.9574 16.5288C17.2483 16.4709 17.5499 16.5006 17.824 16.6142C18.0981 16.7277 18.3324 16.92 18.4972 17.1666C18.662 17.4133 18.75 17.7033 18.75 18C18.75 18.3978 18.592 18.7794 18.3107 19.0607C18.0294 19.342 17.6478 19.5 17.25 19.5ZM21 17.25H20.1435C19.9783 16.6076 19.6046 16.0381 19.0809 15.6309C18.5573 15.2238 17.9133 15.0018 17.25 15V13.5H21V17.25Z" fill="black"/>
</svg>
