<svg width="26" height="26" viewBox="0 0 26 26" fill="none" xmlns="http://www.w3.org/2000/svg">
<path d="M23.0882 8.60234C22.9375 8.45068 22.7582 8.33041 22.5606 8.24848C22.3631 8.16654 22.1513 8.12458 21.9375 8.125H18.6875V7.3125C18.6875 5.80408 18.0883 4.35744 17.0217 3.29083C15.9551 2.22422 14.5084 1.625 13 1.625C11.4916 1.625 10.0449 2.22422 8.97833 3.29083C7.91172 4.35744 7.3125 5.80408 7.3125 7.3125V8.125H4.0625C3.63152 8.125 3.2182 8.29621 2.91345 8.60095C2.6087 8.9057 2.4375 9.31902 2.4375 9.75V20.7188C2.4375 22.6992 4.11328 24.375 6.09375 24.375H19.9062C20.8642 24.3753 21.7843 24.0007 22.4697 23.3314C22.8146 23.0024 23.0893 22.6069 23.2771 22.1687C23.4649 21.7306 23.562 21.2589 23.5625 20.7822V9.75C23.5631 9.53686 23.5216 9.32571 23.4402 9.12873C23.3588 8.93174 23.2391 8.75284 23.0882 8.60234ZM16.25 17.0625H13.8125V19.5C13.8125 19.7155 13.7269 19.9222 13.5745 20.0745C13.4222 20.2269 13.2155 20.3125 13 20.3125C12.7845 20.3125 12.5778 20.2269 12.4255 20.0745C12.2731 19.9222 12.1875 19.7155 12.1875 19.5V17.0625H9.75C9.53451 17.0625 9.32785 16.9769 9.17548 16.8245C9.0231 16.6722 8.9375 16.4655 8.9375 16.25C8.9375 16.0345 9.0231 15.8278 9.17548 15.6755C9.32785 15.5231 9.53451 15.4375 9.75 15.4375H12.1875V13C12.1875 12.7845 12.2731 12.5778 12.4255 12.4255C12.5778 12.2731 12.7845 12.1875 13 12.1875C13.2155 12.1875 13.4222 12.2731 13.5745 12.4255C13.7269 12.5778 13.8125 12.7845 13.8125 13V15.4375H16.25C16.4655 15.4375 16.6722 15.5231 16.8245 15.6755C16.9769 15.8278 17.0625 16.0345 17.0625 16.25C17.0625 16.4655 16.9769 16.6722 16.8245 16.8245C16.6722 16.9769 16.4655 17.0625 16.25 17.0625ZM17.0625 8.125H8.9375V7.3125C8.9375 6.23506 9.36551 5.20175 10.1274 4.43988C10.8892 3.67801 11.9226 3.25 13 3.25C14.0774 3.25 15.1108 3.67801 15.8726 4.43988C16.6345 5.20175 17.0625 6.23506 17.0625 7.3125V8.125Z" fill="white"/>
</svg>
