<svg width="56" height="56" viewBox="0 0 56 56" fill="none" xmlns="http://www.w3.org/2000/svg">
<path d="M38.5 24.5C38.5 30.31 33.81 35 28 35C22.19 35 17.5 30.31 17.5 24.5C17.5 18.69 22.19 14 28 14C33.81 14 38.5 18.69 38.5 24.5Z" fill="#082F49"/>
<path fill-rule="evenodd" clip-rule="evenodd" d="M56 28C56 43.47 43.47 56 28 56C12.53 56 0 43.47 0 28C0 12.53 12.53 0 28 0C43.47 0 56 12.53 56 28ZM14 48.125C14.56 47.194 19.985 38.5 27.965 38.5C35.91 38.5 41.37 47.215 41.93 48.125C45.1845 45.8744 47.8437 42.867 49.6788 39.3614C51.5139 35.8558 52.4701 31.9569 52.465 28C52.465 14.455 41.51 3.5 27.965 3.5C14.42 3.5 3.465 14.455 3.465 28C3.465 36.33 7.63 43.715 14 48.125Z" fill="#082F49"/>
</svg>
