<svg width="23" height="22" viewBox="0 0 23 22" fill="none" xmlns="http://www.w3.org/2000/svg">
<path d="M9.24357 0C7.93576 0.0220312 6.75451 0.802031 6.22013 2.00812L12.6186 3.94078C12.8998 2.26312 11.892 0.636562 10.2701 0.142969C9.97951 0.0548437 9.67482 0.0065625 9.37013 0H9.24357ZM5.97638 2.81625C5.69045 4.49859 6.69826 6.12984 8.32482 6.62203C9.95607 7.11422 11.6951 6.30797 12.3795 4.74703L5.97638 2.81625ZM18.4217 4.89234C17.2358 4.89703 15.9748 5.46891 15.0233 6.81422L9.17326 15.1064C7.60295 17.3283 8.28732 19.6533 9.8342 20.7502C11.3858 21.8517 13.7998 21.7252 15.3701 19.5033L21.2154 11.2158C22.7858 8.98922 22.1014 6.66891 20.5545 5.56734C19.9733 5.15484 19.2748 4.91578 18.5389 4.89234H18.4217ZM18.3373 5.70328C18.3983 5.70328 18.4592 5.70328 18.5154 5.70797C19.0826 5.73141 19.617 5.93297 20.067 6.25641C21.2717 7.10953 21.8764 8.81109 20.5217 10.7283L17.4983 15.0173C15.8201 14.5673 13.6639 13.0345 12.6842 11.5955L15.717 7.30172C16.5092 6.18141 17.4514 5.72203 18.3373 5.70328ZM3.33029 9.27516C2.87935 9.27984 2.43451 9.37359 2.02107 9.55641C0.46904 10.2361 -0.338616 11.9705 0.134821 13.6017L6.26232 10.9252C5.64826 9.88922 4.53263 9.26109 3.33029 9.27516ZM6.59513 11.6939L0.468571 14.3752C1.33341 15.847 3.15451 16.4377 4.71545 15.758C6.2717 15.0736 7.07795 13.3298 6.59513 11.6939Z" fill="#082F49"/>
</svg>
