<svg width="48" height="48" viewBox="0 0 48 48" fill="none" xmlns="http://www.w3.org/2000/svg">
<path d="M21.7488 24.8894C21.0797 15.9444 20.5215 8.24595 20.5215 7.48157C20.5215 6.5582 20.8879 5.67265 21.5402 5.01973C22.1925 4.36681 23.0772 4 23.9997 4C24.9221 4 25.8068 4.36681 26.4591 5.01973C27.1114 5.67265 27.4779 6.5582 27.4779 7.48157C27.4779 8.25142 26.9197 15.9498 26.2506 24.9004L25.7288 31.8635C25.4423 35.659 25.152 39.4542 24.8579 43.2491C24.8291 43.4573 24.7261 43.6479 24.5679 43.786C24.4096 43.924 24.2068 44 23.9969 44C23.7871 44 23.5843 43.924 23.426 43.786C23.2678 43.6479 23.1648 43.4573 23.136 43.2491C22.8706 39.7931 22.5724 35.8474 22.2651 31.8635L21.7488 24.8894Z" fill="#66E1FF"/>
<path d="M23.9997 8.31511C24.7279 8.31752 25.4369 8.54902 26.0265 8.97686C26.6161 9.40469 27.0564 10.0072 27.2851 10.6993C27.407 8.91934 27.4779 7.75093 27.4779 7.48157C27.4779 6.5582 27.1114 5.67265 26.4591 5.01973C25.8068 4.36681 24.9221 4 23.9997 4C23.0772 4 22.1925 4.36681 21.5402 5.01973C20.8879 5.67265 20.5215 6.5582 20.5215 7.48157C20.5215 7.75639 20.5942 8.9248 20.7142 10.7029C20.9427 10.0105 21.3828 9.4076 21.9724 8.97941C22.562 8.55123 23.2712 8.31765 23.9997 8.31511Z" fill="#C2F3FF"/>
<path d="M20.5727 8.50635C15.9836 2.95549 9.11816 9.39813 4.63997 10.7049C4.49798 10.7455 4.36831 10.8208 4.26262 10.9241C4.15694 11.0273 4.07855 11.1552 4.03451 11.2963C3.99346 11.4365 3.98895 11.5849 4.02142 11.7273C4.05388 11.8697 4.12223 12.0014 4.21997 12.1099C6.84179 15.0145 14.02 17.3531 21.0782 15.8044M27.4273 8.50635C32.0146 2.95549 38.8782 9.39813 43.3582 10.7049C43.5002 10.7455 43.6299 10.8208 43.7356 10.9241C43.8412 11.0273 43.9196 11.1552 43.9637 11.2963C44.0047 11.4365 44.0092 11.5849 43.9768 11.7273C43.9443 11.8697 43.8759 12.0014 43.7782 12.1099C41.1582 15.0145 33.9782 17.3531 26.92 15.8044" fill="#66E1FF"/>
<path d="M27.4272 8.50635C32.0145 2.95549 38.8781 9.39813 43.3581 10.7049C43.5001 10.7455 43.6298 10.8208 43.7355 10.9241C43.8412 11.0273 43.9195 11.1552 43.9636 11.2963C44.0046 11.4365 44.0091 11.5849 43.9767 11.7273C43.9442 11.8697 43.8759 12.0014 43.7781 12.1099C41.1581 15.0145 33.9781 17.3531 26.9199 15.8044" fill="#66E1FF"/>
<path d="M6.89633 14.0972C11.2054 12.0261 16.6654 8.15874 20.7909 11.6712L20.5727 8.50635C15.9836 2.95549 9.11816 9.39813 4.63997 10.7049C4.49798 10.7455 4.36831 10.8208 4.26262 10.9241C4.15694 11.0273 4.07855 11.1552 4.03451 11.2963C3.99346 11.4365 3.98895 11.5849 4.02142 11.7273C4.05388 11.8697 4.12223 12.0014 4.21997 12.1099C4.99244 12.9201 5.89759 13.5923 6.89633 14.0972ZM41.1037 14.0972C36.7946 12.0316 31.3346 8.16602 27.2091 11.6785L27.4273 8.51363C32.0164 2.95549 38.8818 9.39631 43.36 10.7049C43.502 10.7455 43.6317 10.8208 43.7374 10.9241C43.8431 11.0273 43.9215 11.1552 43.9655 11.2963C44.0065 11.4365 44.0111 11.5849 43.9786 11.7273C43.9461 11.8697 43.8778 12.0014 43.78 12.1099C43.0076 12.9201 42.1024 13.5923 41.1037 14.0972Z" fill="#C2F3FF"/>
<path d="M20.5727 8.50635C15.9836 2.95548 9.11816 9.39813 4.63997 10.7049C4.49798 10.7455 4.36831 10.8208 4.26262 10.9241C4.15694 11.0273 4.07855 11.1552 4.03451 11.2963C3.99346 11.4365 3.98895 11.5849 4.02142 11.7273C4.05388 11.8697 4.12223 12.0014 4.21997 12.1099C6.84179 15.0145 14.02 17.3532 21.0782 15.8044M27.4273 8.50635C32.0146 2.95548 38.8782 9.39813 43.3582 10.7049C43.5002 10.7455 43.6299 10.8208 43.7356 10.9241C43.8412 11.0273 43.9196 11.1552 43.9637 11.2963C44.0047 11.4365 44.0092 11.5849 43.9768 11.7273C43.9443 11.8697 43.8759 12.0014 43.7782 12.1099C41.1582 15.0145 33.9782 17.3532 26.92 15.8044M29.6618 19.5862C33.0527 20.3816 35.3346 21.8739 35.3346 23.5901C35.3346 26.2127 33.3891 27.3447 30.8127 27.8306C28.557 28.1526 26.2773 28.2756 24 28.1983C22.1167 28.1445 20.2338 28.3199 18.3927 28.7206C16.22 29.283 14.7891 30.384 14.7891 32.4424C14.7891 35.9877 18.9109 36.6975 24.0073 36.6975C24.0073 36.6975 30.3818 36.6975 28.2546 42.3721" stroke="#191919" stroke-width="2" stroke-linecap="round" stroke-linejoin="round"/>
<path d="M32.7839 30.7351C33.0749 31.2556 33.2203 31.8453 33.2094 32.4423C33.2094 35.9875 29.0858 36.6973 23.9912 36.6973C23.9912 36.6973 17.6166 36.6973 19.7403 42.3719M18.3348 19.5861C14.9439 20.3814 12.6639 21.8738 12.6639 23.59C12.6359 24.31 12.8209 25.0224 13.1958 25.6375C13.5707 26.2527 14.1187 26.7434 14.7712 27.0479M21.7494 24.8894C21.0803 15.9444 20.5221 8.24596 20.5221 7.48157C20.5221 6.5582 20.8886 5.67265 21.5408 5.01973C22.1931 4.36681 23.0778 4 24.0003 4C24.9228 4 25.8075 4.36681 26.4597 5.01973C27.112 5.67265 27.4785 6.5582 27.4785 7.48157C27.4785 8.25142 26.9203 15.9498 26.2512 24.9004" stroke="#191919" stroke-width="2" stroke-linecap="round" stroke-linejoin="round"/>
<path d="M25.7273 31.8525C25.4255 35.8364 25.1255 39.7821 24.8582 43.2382C24.831 43.4477 24.7285 43.6401 24.5699 43.7795C24.4113 43.9189 24.2075 43.9958 23.9964 43.9958C23.7853 43.9958 23.5815 43.9189 23.4229 43.7795C23.2643 43.6401 23.1618 43.4477 23.1346 43.2382C22.8691 39.7821 22.5709 35.8364 22.2637 31.8525" stroke="#191919" stroke-width="2" stroke-linecap="round" stroke-linejoin="round"/>
</svg>
